<svg width="1728" height="1117" viewBox="0 0 1728 1117" fill="none" xmlns="http://www.w3.org/2000/svg">
<g id="MacBook Pro 16&#34; - 1">
<path id="butt" d="M352.956 324.54C351.199 316.662 359.019 310.056 366.493 313.105L740.597 465.69C747.555 468.528 749.014 477.74 743.273 482.589L457.094 724.345C451.354 729.194 442.516 726.217 440.88 718.882L352.956 324.54Z" fill="url(#paint0_linear_8_2)" fill-opacity="0.27"/>
<g id="upper-finn">
<path id="Rectangle 1" d="M724 292H1062.94L1124 444H785.057L724 292Z" fill="#74BACA"/>
<g id="Line 5">
<line x1="756.932" y1="300.638" x2="782.932" y2="367.638" stroke="#6F97FF" stroke-width="2"/>
<line x1="756.932" y1="300.638" x2="782.932" y2="367.638" stroke="#6F97FF" stroke-width="2"/>
</g>
<g id="Line 9">
<line x1="918.932" y1="299.638" x2="944.932" y2="366.638" stroke="#6F97FF" stroke-width="2"/>
<line x1="918.932" y1="299.638" x2="944.932" y2="366.638" stroke="#6F97FF" stroke-width="2"/>
</g>
<g id="Line 10">
<line x1="958.932" y1="300.638" x2="984.932" y2="367.638" stroke="#6F97FF" stroke-width="2"/>
<line x1="958.932" y1="300.638" x2="984.932" y2="367.638" stroke="#6F97FF" stroke-width="2"/>
</g>
<g id="Line 11">
<line x1="996.932" y1="300.638" x2="1022.93" y2="367.638" stroke="#6F97FF" stroke-width="2"/>
<line x1="996.932" y1="300.638" x2="1022.93" y2="367.638" stroke="#6F97FF" stroke-width="2"/>
</g>
<g id="Line 12">
<line x1="1036.93" y1="300.638" x2="1062.93" y2="367.638" stroke="#6F97FF" stroke-width="2"/>
<line x1="1036.93" y1="300.638" x2="1062.93" y2="367.638" stroke="#6F97FF" stroke-width="2"/>
</g>
<g id="Line 6">
<line x1="796.932" y1="300.638" x2="822.932" y2="367.638" stroke="#6F97FF" stroke-width="2"/>
<line x1="796.932" y1="300.638" x2="822.932" y2="367.638" stroke="#6F97FF" stroke-width="2"/>
</g>
<g id="Line 7">
<line x1="836.932" y1="299.638" x2="862.932" y2="366.638" stroke="#6F97FF" stroke-width="2"/>
<line x1="836.932" y1="299.638" x2="862.932" y2="366.638" stroke="#6F97FF" stroke-width="2"/>
</g>
<g id="Line 8">
<line x1="878.932" y1="300.638" x2="904.932" y2="367.638" stroke="#6F97FF" stroke-width="2"/>
<line x1="878.932" y1="300.638" x2="904.932" y2="367.638" stroke="#6F97FF" stroke-width="2"/>
</g>
</g>
<g id="body">
<ellipse id="Ellipse 1" cx="947.5" cy="519" rx="448.5" ry="151" fill="url(#paint1_linear_8_2)"/>
<ellipse id="Ellipse 2" cx="1250.5" cy="458.5" rx="32.5" ry="14.5" fill="#FFEEEE"/>
<ellipse id="Ellipse 3" cx="1257.5" cy="458.5" rx="17.5" ry="14.5" fill="#5A5555"/>
</g>
<g id="finn">
<path id="Rectangle 2" d="M948.497 558H1124L1050.5 661H875L948.497 558Z" fill="#74BACA"/>
<g id="Line 1">
<line x1="973.83" y1="573.557" x2="924.83" y2="646.557" stroke="#6F97FF" stroke-width="2"/>
<line x1="973.83" y1="573.557" x2="924.83" y2="646.557" stroke="#6F97FF" stroke-width="2"/>
</g>
<g id="Line 2">
<line x1="1000.83" y1="573.557" x2="951.83" y2="646.557" stroke="#6F97FF" stroke-width="2"/>
<line x1="1000.83" y1="573.557" x2="951.83" y2="646.557" stroke="#6F97FF" stroke-width="2"/>
</g>
<g id="Line 3">
<line x1="1025.83" y1="573.557" x2="976.83" y2="646.557" stroke="#6F97FF" stroke-width="2"/>
<line x1="1025.83" y1="573.557" x2="976.83" y2="646.557" stroke="#6F97FF" stroke-width="2"/>
</g>
<g id="Line 4">
<line x1="1050.83" y1="573.557" x2="1001.83" y2="646.557" stroke="#6F97FF" stroke-width="2"/>
<line x1="1050.83" y1="573.557" x2="1001.83" y2="646.557" stroke="#6F97FF" stroke-width="2"/>
</g>
</g>
</g>
<defs>
<linearGradient id="paint0_linear_8_2" x1="348.797" y1="305.887" x2="683.979" y2="702.66" gradientUnits="userSpaceOnUse">
<stop stop-color="#1A4873"/>
<stop offset="0.0001" stop-color="#1080E9"/>
<stop offset="1" stop-color="#010603"/>
</linearGradient>
<linearGradient id="paint1_linear_8_2" x1="947.5" y1="368" x2="947.5" y2="670" gradientUnits="userSpaceOnUse">
<stop stop-color="#1A4873"/>
<stop offset="1" stop-color="#F0FFF5"/>
</linearGradient>
</defs>
</svg>
